# xmcd CD database file
#
# Track frame offsets:
#	150
#	24830
#	40074
#	61457
#	80334
#	101430
#	120317
#	142817
#	164491
#	186821
#	200866
#	216313
#	234657
#	253942
#	274333
#
# Disc length: 3933 seconds
#
# Revision: 0
# Processed by: cddbd v1.5.1PL0 Copyright (c) Steve Scherf et al.
# Submitted via: CDex 1.51
#
DISCID=d50f5b0f
DTITLE=Cesaria Evora - VOZ D'AMOR (Japan Special)
DYEAR=2003
DGENRE=Vocal
TTITLE0=ISOLADA
TTITLE1=VELOCIDADE
TTITLE2=AMDJER DE NOS TERRA
TTITLE3=BEIJO ROUBADO
TTITLE4=DJARMAI DI MEU
TTITLE5=MONTE CARA
TTITLE6=RAIBOIA
TTITLE7=JARDIM PROMETIDO
TTITLE8=NHA CORACAO TCHORA
TTITLE9=SAIA TRAVADA
TTITLE10=POMBA
TTITLE11=MAR DE CANAL
TTITLE12=MILCA TI LIDIA
TTITLE13=VOZ D'AMOR
TTITLE14=CABO VERDE TERRA ESTIMADA
EXTD=YEAR: 2003
EXTT0=
EXTT1=
EXTT2=
EXTT3=
EXTT4=
EXTT5=
EXTT6=
EXTT7=
EXTT8=
EXTT9=
EXTT10=
EXTT11=
EXTT12=
EXTT13=
EXTT14=
PLAYORDER=
